<svg width="101" height="30" viewBox="0 0 101 30" fill="none" xmlns="http://www.w3.org/2000/svg">
<path d="M64.3226 0H36.6777V0.859482H64.3226V0Z" fill="#F0B7DF"/>
<path d="M64.3226 12.0929H36.6777V12.9524H64.3226V12.0929Z" fill="#F0B7DF"/>
<path d="M36.6779 12.9524C33.1616 12.9524 30.3008 10.0473 30.3008 6.4762C30.3008 2.90505 33.1616 0 36.6779 0V0.859482C33.6279 0.859482 31.1472 3.37905 31.1472 6.4762C31.1472 9.57334 33.6284 12.0929 36.6779 12.0929V12.9524Z" fill="#F0B7DF"/>
<path d="M64.3242 12.9524V12.0929C67.3738 12.0929 69.855 9.57334 69.855 6.4762C69.855 3.37905 67.3738 0.859482 64.3242 0.859482V0C67.841 0 70.7014 2.90548 70.7014 6.4762C70.7014 10.0469 67.841 12.9524 64.3242 12.9524Z" fill="#F0B7DF"/>
<path d="M54.1019 6.41433C54.4536 6.03529 54.6707 5.52605 54.6707 4.96395C54.6707 3.79505 53.7375 2.84705 52.5864 2.84705C51.4349 2.84705 50.5018 3.79505 50.5018 4.96395H50.5009C50.5009 3.79505 49.5682 2.84705 48.4167 2.84705C47.2656 2.84705 46.332 3.79505 46.332 4.96395C46.332 5.52605 46.5491 6.03529 46.9012 6.41433L46.8991 6.41519L46.9275 6.44398C46.9368 6.45343 46.9465 6.46375 46.9562 6.4732L50.5014 10.1049L54.0456 6.47449C54.0558 6.46418 54.0659 6.45386 54.0757 6.44355L54.1032 6.41562L54.1019 6.41433Z" fill="#F0B7DF"/>
<path d="M35.1105 7.09421C35.4466 7.09421 35.7191 6.81754 35.7191 6.47624C35.7191 6.13495 35.4466 5.85828 35.1105 5.85828C34.7744 5.85828 34.502 6.13495 34.502 6.47624C34.502 6.81754 34.7744 7.09421 35.1105 7.09421Z" fill="#F0B7DF"/>
<path d="M38.5539 7.09421C38.89 7.09421 39.1624 6.81754 39.1624 6.47624C39.1624 6.13495 38.89 5.85828 38.5539 5.85828C38.2178 5.85828 37.9453 6.13495 37.9453 6.47624C37.9453 6.81754 38.2178 7.09421 38.5539 7.09421Z" fill="#F0B7DF"/>
<path d="M41.9972 7.09421C42.3333 7.09421 42.6058 6.81754 42.6058 6.47624C42.6058 6.13495 42.3333 5.85828 41.9972 5.85828C41.6611 5.85828 41.3887 6.13495 41.3887 6.47624C41.3887 6.81754 41.6611 7.09421 41.9972 7.09421Z" fill="#F0B7DF"/>
<path d="M35.1105 4.28757C35.4466 4.28757 35.7191 4.0109 35.7191 3.6696C35.7191 3.32831 35.4466 3.05164 35.1105 3.05164C34.7744 3.05164 34.502 3.32831 34.502 3.6696C34.502 4.0109 34.7744 4.28757 35.1105 4.28757Z" fill="#F0B7DF"/>
<path d="M38.5539 4.28757C38.89 4.28757 39.1624 4.0109 39.1624 3.6696C39.1624 3.32831 38.89 3.05164 38.5539 3.05164C38.2178 3.05164 37.9453 3.32831 37.9453 3.6696C37.9453 4.0109 38.2178 4.28757 38.5539 4.28757Z" fill="#F0B7DF"/>
<path d="M41.9972 4.28757C42.3333 4.28757 42.6058 4.0109 42.6058 3.6696C42.6058 3.32831 42.3333 3.05164 41.9972 3.05164C41.6611 3.05164 41.3887 3.32831 41.3887 3.6696C41.3887 4.0109 41.6611 4.28757 41.9972 4.28757Z" fill="#F0B7DF"/>
<path d="M35.1105 9.90085C35.4466 9.90085 35.7191 9.62418 35.7191 9.28288C35.7191 8.94159 35.4466 8.66492 35.1105 8.66492C34.7744 8.66492 34.502 8.94159 34.502 9.28288C34.502 9.62418 34.7744 9.90085 35.1105 9.90085Z" fill="#F0B7DF"/>
<path d="M38.5539 9.90085C38.89 9.90085 39.1624 9.62418 39.1624 9.28288C39.1624 8.94159 38.89 8.66492 38.5539 8.66492C38.2178 8.66492 37.9453 8.94159 37.9453 9.28288C37.9453 9.62418 38.2178 9.90085 38.5539 9.90085Z" fill="#F0B7DF"/>
<path d="M41.9972 9.90085C42.3333 9.90085 42.6058 9.62418 42.6058 9.28288C42.6058 8.94159 42.3333 8.66492 41.9972 8.66492C41.6611 8.66492 41.3887 8.94159 41.3887 9.28288C41.3887 9.62418 41.6611 9.90085 41.9972 9.90085Z" fill="#F0B7DF"/>
<path d="M59.0031 7.09421C59.3392 7.09421 59.6116 6.81754 59.6116 6.47624C59.6116 6.13495 59.3392 5.85828 59.0031 5.85828C58.667 5.85828 58.3945 6.13495 58.3945 6.47624C58.3945 6.81754 58.667 7.09421 59.0031 7.09421Z" fill="#F0B7DF"/>
<path d="M62.4484 7.09421C62.7845 7.09421 63.057 6.81754 63.057 6.47624C63.057 6.13495 62.7845 5.85828 62.4484 5.85828C62.1123 5.85828 61.8398 6.13495 61.8398 6.47624C61.8398 6.81754 62.1123 7.09421 62.4484 7.09421Z" fill="#F0B7DF"/>
<path d="M65.8918 7.09421C66.2279 7.09421 66.5003 6.81754 66.5003 6.47624C66.5003 6.13495 66.2279 5.85828 65.8918 5.85828C65.5557 5.85828 65.2832 6.13495 65.2832 6.47624C65.2832 6.81754 65.5557 7.09421 65.8918 7.09421Z" fill="#F0B7DF"/>
<path d="M59.005 4.28757C59.3411 4.28757 59.6136 4.0109 59.6136 3.6696C59.6136 3.32831 59.3411 3.05164 59.005 3.05164C58.6689 3.05164 58.3965 3.32831 58.3965 3.6696C58.3965 4.0109 58.6689 4.28757 59.005 4.28757Z" fill="#F0B7DF"/>
<path d="M62.4484 4.28757C62.7845 4.28757 63.057 4.0109 63.057 3.6696C63.057 3.32831 62.7845 3.05164 62.4484 3.05164C62.1123 3.05164 61.8398 3.32831 61.8398 3.6696C61.8398 4.0109 62.1123 4.28757 62.4484 4.28757Z" fill="#F0B7DF"/>
<path d="M65.8918 4.28757C66.2279 4.28757 66.5003 4.0109 66.5003 3.6696C66.5003 3.32831 66.2279 3.05164 65.8918 3.05164C65.5557 3.05164 65.2832 3.32831 65.2832 3.6696C65.2832 4.0109 65.5557 4.28757 65.8918 4.28757Z" fill="#F0B7DF"/>
<path d="M59.0031 9.90085C59.3392 9.90085 59.6116 9.62418 59.6116 9.28288C59.6116 8.94159 59.3392 8.66492 59.0031 8.66492C58.667 8.66492 58.3945 8.94159 58.3945 9.28288C58.3945 9.62418 58.667 9.90085 59.0031 9.90085Z" fill="#F0B7DF"/>
<path d="M62.4484 9.90085C62.7845 9.90085 63.057 9.62418 63.057 9.28288C63.057 8.94159 62.7845 8.66492 62.4484 8.66492C62.1123 8.66492 61.8398 8.94159 61.8398 9.28288C61.8398 9.62418 62.1123 9.90085 62.4484 9.90085Z" fill="#F0B7DF"/>
<path d="M65.8918 9.90085C66.2279 9.90085 66.5003 9.62418 66.5003 9.28288C66.5003 8.94159 66.2279 8.66492 65.8918 8.66492C65.5557 8.66492 65.2832 8.94159 65.2832 9.28288C65.2832 9.62418 65.5557 9.90085 65.8918 9.90085Z" fill="#F0B7DF"/>
<path d="M56.8782 12.9524H44.123V0H56.8782V12.9524ZM44.9694 12.0929H56.0318V0.859482H44.9694V12.0929Z" fill="#F0B7DF"/>
<path d="M10.4921 19.039C10.5413 19.129 10.5635 19.224 10.5585 19.3239C10.5536 19.4239 10.5216 19.5139 10.4626 19.5938L6.37236 25.5916V29.4452C6.37236 29.5851 6.32068 29.7076 6.21732 29.8125C6.11396 29.9175 5.99337 29.97 5.85555 29.97H4.71857C4.57091 29.97 4.4454 29.9175 4.34203 29.8125C4.23867 29.7076 4.18699 29.5851 4.18699 29.4452V25.0518C4.18699 24.9518 4.22145 24.8519 4.29035 24.7519L8.23288 18.9791C8.2821 18.9091 8.34363 18.8541 8.41746 18.8141C8.49129 18.7741 8.5725 18.7542 8.6611 18.7542H10.0343C10.1328 18.7542 10.2238 18.7791 10.3075 18.8291C10.3912 18.8791 10.4527 18.9491 10.4921 19.039ZM4.27559 22.3378C4.23621 22.4278 4.17469 22.4978 4.09101 22.5477C4.00734 22.5977 3.91628 22.6227 3.81784 22.6227H2.4446C2.26741 22.6227 2.11975 22.5477 2.00162 22.3978L0.0820335 19.5938C0.0328134 19.5139 0.00574235 19.4239 0.000820335 19.3239C-0.00410168 19.224 0.0131254 19.129 0.0525015 19.039C0.0918776 18.9491 0.153403 18.8791 0.237077 18.8291C0.320751 18.7791 0.411808 18.7542 0.510249 18.7542H1.89826C2.0656 18.7542 2.20834 18.8291 2.32647 18.9791L4.24606 21.783C4.29528 21.863 4.32235 21.953 4.32727 22.0529C4.33219 22.1529 4.31496 22.2478 4.27559 22.3378ZM17.3494 18.8741C17.4676 18.9741 17.5266 19.109 17.5266 19.279V20.4035C17.5266 20.5335 17.4897 20.6459 17.4159 20.7409C17.3421 20.8359 17.2412 20.8983 17.1132 20.9283C16.4832 21.0583 15.9467 21.3632 15.5037 21.843C14.9032 22.4828 14.603 23.3149 14.603 24.3396C14.603 25.3642 14.9032 26.2014 15.5037 26.8511C15.9467 27.321 16.4832 27.6208 17.1132 27.7508C17.2412 27.7808 17.3421 27.8433 17.4159 27.9382C17.4897 28.0332 17.5266 28.1456 17.5266 28.2756V29.4002C17.5266 29.5601 17.4676 29.6951 17.3494 29.805C17.2412 29.885 17.1279 29.925 17.0098 29.925H16.9212C15.7793 29.735 14.7998 29.2102 13.9828 28.3506C12.959 27.281 12.4471 25.949 12.4471 24.3546C12.4471 22.7602 12.959 21.4182 13.9828 20.3286C14.7801 19.4889 15.7596 18.9691 16.9212 18.7691C17.0787 18.7392 17.2215 18.7741 17.3494 18.8741ZM21.986 20.3286C23.0097 21.4182 23.5216 22.7602 23.5216 24.3546C23.5216 25.949 23.0097 27.281 21.986 28.3506C21.1689 29.2102 20.1894 29.735 19.0475 29.925H18.9589C18.8408 29.925 18.7276 29.885 18.6193 29.805C18.5012 29.6951 18.4421 29.5601 18.4421 29.4002V28.2756C18.4421 28.1456 18.479 28.0332 18.5529 27.9382C18.6267 27.8433 18.7276 27.7808 18.8556 27.7508C19.4856 27.6208 20.0221 27.321 20.4651 26.8511C21.0656 26.2014 21.3658 25.3642 21.3658 24.3396C21.3658 23.3149 21.0656 22.4828 20.4651 21.843C20.0221 21.3632 19.4856 21.0583 18.8556 20.9283C18.7276 20.8983 18.6267 20.8359 18.5529 20.7409C18.479 20.6459 18.4421 20.5335 18.4421 20.4035V19.279C18.4421 19.109 18.5036 18.9741 18.6267 18.8741C18.7497 18.7741 18.89 18.7392 19.0475 18.7691C20.2091 18.9691 21.1886 19.4889 21.986 20.3286ZM30.4085 27.7958C30.5266 27.8358 30.6202 27.9032 30.6891 27.9982C30.758 28.0932 30.7924 28.2006 30.7924 28.3206V29.4751C30.7924 29.6351 30.7284 29.77 30.6005 29.88C30.502 29.96 30.3937 30 30.2756 30C30.2264 30 30.1919 29.995 30.1723 29.985C29.2568 29.805 28.4692 29.3752 27.8097 28.6954C26.9237 27.7758 26.4808 26.5662 26.4808 25.0668V19.2939C26.4808 19.144 26.5324 19.0166 26.6358 18.9116C26.7392 18.8066 26.8597 18.7542 26.9976 18.7542H28.1345C28.2822 18.7542 28.4077 18.8066 28.5111 18.9116C28.6144 19.0166 28.6661 19.144 28.6661 19.2939V25.0968C28.6661 26.0464 28.9319 26.7712 29.4635 27.271C29.7391 27.5309 30.0541 27.7058 30.4085 27.7958ZM35.5028 18.7542C35.6505 18.7542 35.776 18.8066 35.8793 18.9116C35.9827 19.0166 36.0344 19.144 36.0344 19.2939V25.0668C36.0344 26.5662 35.5914 27.7758 34.7054 28.6954C34.0459 29.3752 33.2584 29.805 32.3429 29.985C32.3232 29.995 32.2887 30 32.2395 30C32.1214 30 32.0131 29.96 31.9147 29.88C31.7867 29.78 31.7227 29.6401 31.7227 29.4602V28.3056C31.7227 28.1956 31.7571 28.0932 31.8261 27.9982C31.895 27.9032 31.9885 27.8358 32.1066 27.7958C32.4807 27.6858 32.7957 27.5109 33.0516 27.271C33.5832 26.7911 33.849 26.0664 33.849 25.0968V19.2939C33.849 19.144 33.9007 19.0166 34.004 18.9116C34.1074 18.8066 34.2329 18.7542 34.3806 18.7542H35.5028ZM46.6128 25.5766L48.8424 29.0403C48.9507 29.2202 48.9556 29.4002 48.8572 29.5801C48.8178 29.6601 48.7563 29.7251 48.6726 29.775C48.589 29.825 48.5028 29.85 48.4142 29.85H47.0705C46.9819 29.85 46.8982 29.8275 46.8195 29.7825C46.7407 29.7375 46.6817 29.6801 46.6423 29.6101L44.3979 25.9964H41.7695V29.3252C41.7695 29.4652 41.7178 29.5876 41.6145 29.6926C41.5111 29.7975 41.3905 29.85 41.2527 29.85H40.1305C39.9927 29.85 39.8721 29.7975 39.7687 29.6926C39.6653 29.5876 39.6137 29.4652 39.6137 29.3252V24.392C39.6137 24.2521 39.6653 24.1296 39.7687 24.0247C39.8721 23.9197 39.9927 23.8672 40.1305 23.8672H44.6784C45.5447 23.8672 46.1206 23.6173 46.406 23.1175C46.5045 22.9576 46.5537 22.7277 46.5537 22.4278C46.5537 21.958 46.4011 21.5881 46.096 21.3182C45.7809 21.0283 45.3281 20.8834 44.7375 20.8834H40.1305C39.9927 20.8834 39.8721 20.8309 39.7687 20.7259C39.6653 20.621 39.6137 20.4985 39.6137 20.3586V19.279C39.6137 19.139 39.6653 19.0166 39.7687 18.9116C39.8721 18.8066 39.9927 18.7542 40.1305 18.7542H44.8704C46.0221 18.7542 46.9425 19.084 47.6316 19.7438C48.3502 20.4035 48.7095 21.2982 48.7095 22.4278C48.7095 23.1575 48.552 23.7798 48.237 24.2946C47.922 24.8094 47.4643 25.2017 46.8638 25.4716L46.6128 25.5766ZM58.9483 23.3424C59.096 23.3424 59.2215 23.3949 59.3248 23.4999C59.4282 23.6048 59.4799 23.7323 59.4799 23.8822V24.9918C59.4799 25.1318 59.4282 25.2542 59.3248 25.3592C59.2215 25.4641 59.096 25.5166 58.9483 25.5166H54.0903V29.3552C54.0903 29.4951 54.0411 29.6176 53.9426 29.7226C53.8442 29.8275 53.7211 29.88 53.5735 29.88H52.4513C52.3134 29.88 52.1928 29.8275 52.0895 29.7226C51.9861 29.6176 51.9344 29.4951 51.9344 29.3552V23.8822C51.9344 23.7323 51.9861 23.6048 52.0895 23.4999C52.1928 23.3949 52.3134 23.3424 52.4513 23.3424H58.9483ZM59.6128 18.7542C59.7506 18.7542 59.8712 18.8066 59.9745 18.9116C60.0779 19.0166 60.1296 19.139 60.1296 19.279V20.3735C60.1296 20.5235 60.0779 20.6509 59.9745 20.7559C59.8712 20.8609 59.7506 20.9133 59.6128 20.9133H52.4513C52.3134 20.9133 52.1928 20.8609 52.0895 20.7559C51.9861 20.6509 51.9344 20.5235 51.9344 20.3735V19.279C51.9344 19.139 51.9861 19.0166 52.0895 18.9116C52.1928 18.8066 52.3134 18.7542 52.4513 18.7542H59.6128ZM64.6244 18.7542C64.7622 18.7542 64.8828 18.8066 64.9861 18.9116C65.0895 19.0166 65.1412 19.139 65.1412 19.279V29.3252C65.1412 29.4652 65.0895 29.5876 64.9861 29.6926C64.8828 29.7975 64.7622 29.85 64.6244 29.85H63.5022C63.3643 29.85 63.2437 29.7975 63.1404 29.6926C63.037 29.5876 62.9853 29.4652 62.9853 29.3252V19.279C62.9853 19.139 63.037 19.0166 63.1404 18.9116C63.2437 18.8066 63.3643 18.7542 63.5022 18.7542H64.6244ZM70.014 27.7058C70.1616 27.7058 70.2847 27.7583 70.3831 27.8632C70.4816 27.9682 70.5308 28.0907 70.5308 28.2306V29.3252C70.5308 29.4652 70.4816 29.5876 70.3831 29.6926C70.2847 29.7975 70.1616 29.85 70.014 29.85H66.5735C66.4258 29.85 66.3028 29.7975 66.2043 29.6926C66.1059 29.5876 66.0567 29.4652 66.0567 29.3252V28.2306C66.0567 28.0907 66.1059 27.9682 66.2043 27.8632C66.3028 27.7583 66.4258 27.7058 66.5735 27.7058H70.014ZM77.5506 18.8741C77.6687 18.9741 77.7278 19.109 77.7278 19.279V20.4035C77.7278 20.5335 77.6908 20.6459 77.617 20.7409C77.5432 20.8359 77.4423 20.8983 77.3143 20.9283C76.6843 21.0583 76.1478 21.3632 75.7048 21.843C75.1043 22.4828 74.8041 23.3149 74.8041 24.3396C74.8041 25.3642 75.1043 26.2014 75.7048 26.8511C76.1478 27.321 76.6843 27.6208 77.3143 27.7508C77.4423 27.7808 77.5432 27.8433 77.617 27.9382C77.6908 28.0332 77.7278 28.1456 77.7278 28.2756V29.4002C77.7278 29.5601 77.6687 29.6951 77.5506 29.805C77.4423 29.885 77.3291 29.925 77.2109 29.925H77.1223C75.9804 29.735 75.001 29.2102 74.1839 28.3506C73.1601 27.281 72.6482 25.949 72.6482 24.3546C72.6482 22.7602 73.1601 21.4182 74.1839 20.3286C74.9813 19.4889 75.9608 18.9691 77.1223 18.7691C77.2799 18.7392 77.4226 18.7741 77.5506 18.8741ZM82.1871 20.3286C83.2109 21.4182 83.7228 22.7602 83.7228 24.3546C83.7228 25.949 83.2109 27.281 82.1871 28.3506C81.37 29.2102 80.3906 29.735 79.2487 29.925H79.1601C79.0419 29.925 78.9287 29.885 78.8204 29.805C78.7023 29.6951 78.6432 29.5601 78.6432 29.4002V28.2756C78.6432 28.1456 78.6802 28.0332 78.754 27.9382C78.8278 27.8433 78.9287 27.7808 79.0567 27.7508C79.6867 27.6208 80.2232 27.321 80.6662 26.8511C81.2667 26.2014 81.5669 25.3642 81.5669 24.3396C81.5669 23.3149 81.2667 22.4828 80.6662 21.843C80.2232 21.3632 79.6867 21.0583 79.0567 20.9283C78.9287 20.8983 78.8278 20.8359 78.754 20.7409C78.6802 20.6459 78.6432 20.5335 78.6432 20.4035V19.279C78.6432 19.109 78.7048 18.9741 78.8278 18.8741C78.9509 18.7741 79.0911 18.7392 79.2487 18.7691C80.4102 18.9691 81.3897 19.4889 82.1871 20.3286ZM100.902 18.9791C101 19.119 101.025 19.274 100.975 19.4439L97.8598 29.5951C97.8302 29.7051 97.7687 29.795 97.6752 29.865C97.5817 29.935 97.4758 29.97 97.3577 29.97H96.0731C95.9648 29.97 95.8639 29.935 95.7704 29.865C95.6768 29.795 95.6153 29.7101 95.5858 29.6101L93.3709 22.6527L91.1708 29.6101C91.1314 29.7201 91.0674 29.8075 90.9788 29.8725C90.8902 29.9375 90.7868 29.97 90.6687 29.97H89.3841C89.2069 29.97 89.0641 29.9 88.9558 29.76C88.8574 29.5901 88.8377 29.4302 88.8968 29.2802L92.2339 19.114C92.2634 19.0141 92.325 18.9291 92.4185 18.8591C92.512 18.7891 92.6129 18.7542 92.7212 18.7542H94.0206C94.1387 18.7542 94.2421 18.7891 94.3307 18.8591C94.4193 18.9291 94.4833 19.0191 94.5226 19.129L96.708 26.0264L98.7753 19.129C98.8146 19.0191 98.8811 18.9291 98.9746 18.8591C99.0681 18.7891 99.169 18.7542 99.2773 18.7542H100.473C100.66 18.7542 100.803 18.8291 100.902 18.9791ZM87.9665 19.129L88.8082 21.933C88.8672 22.1029 88.8426 22.2603 88.7344 22.4053C88.6261 22.5502 88.4833 22.6227 88.3061 22.6227H87.1396C87.0215 22.6227 86.9157 22.5877 86.8222 22.5177C86.7286 22.4478 86.6671 22.3578 86.6376 22.2478L85.7811 19.4439C85.7221 19.274 85.7467 19.1165 85.855 18.9716C85.9633 18.8266 86.1011 18.7542 86.2684 18.7542H87.4645C87.5826 18.7542 87.6884 18.7891 87.7819 18.8591C87.8755 18.9291 87.937 19.0191 87.9665 19.129Z" fill="#F0B7DF"/>
</svg>
